name Walk7.mot
datacolumns 19
datarows 10
range 1.45500000 1.50000000
endheader

                time	   L_ground_force_vx	   L_ground_force_vy	   L_ground_force_vz	   L_ground_force_px	   L_ground_force_py	   L_ground_force_pz	   R_ground_force_vx	   R_ground_force_vy	   R_ground_force_vz	   R_ground_force_px	   R_ground_force_py	   R_ground_force_pz	   L_ground_torque_x	   L_ground_torque_y	   L_ground_torque_z	   R_ground_torque_x	   R_ground_torque_y	   R_ground_torque_z	
          1.45500000	         -0.00000000	          0.00000000	         -0.00000000	         -0.00000000	          0.00000000	         -0.00000000	         -2.72708454	         -1.92473148	         -0.71849600	         -0.06149579	          0.00000000	          0.07446288	          0.00000000	         -0.00000000	          0.00000000	          0.00000000	          0.01874503	          0.00000000	
          1.46000000	          0.00000000	         -0.00000000	         -0.00000000	         -0.00000000	          0.00000000	         -0.00000000	        -18.75697339	         60.92862104	          0.05257273	         -0.19618287	          0.00000000	          0.22944616	          0.00000000	          0.00000000	          0.00000000	          0.00000000	          0.16429175	          0.00000000	
          1.46500000	          0.00000000	         -0.00000000	          0.00000000	         -0.00000000	          0.00000000	         -0.00000000	        -39.28674543	        210.29853252	          7.01571592	         -0.26855887	          0.00000000	          0.30488871	          0.00000000	          0.00000000	          0.00000000	          0.00000000	          0.38039586	          0.00000000	
          1.47000000	         -0.00000000	         -0.00000000	          0.00000000	          0.00000000	          0.00000000	          0.00000000	        -46.69853151	        359.56888006	         22.70018474	         -0.27586328	          0.00000000	          0.30863010	          0.00000000	          0.00000000	          0.00000000	          0.00000000	          0.47757055	          0.00000000	
          1.47500000	         -0.00000000	          0.00000000	          0.00000000	          0.00000000	          0.00000000	          0.00000000	        -44.51917495	        418.67965567	         38.80200660	         -0.26872213	          0.00000000	          0.30063527	          0.00000000	         -0.00000000	          0.00000000	          0.00000000	          0.39227801	          0.00000000	
          1.48000000	         -0.00000000	          0.00000000	         -0.00000000	          0.00000000	          0.00000000	          0.00000000	        -45.46831799	        435.76519909	         46.33818853	         -0.26424085	          0.00000000	          0.29791026	          0.00000000	         -0.00000000	          0.00000000	          0.00000000	          0.22116231	          0.00000000	
          1.48500000	          0.00000000	          0.00000000	         -0.00000000	         -0.00000000	          0.00000000	         -0.00000000	        -54.48392178	        468.77511649	         44.24541105	         -0.26186285	          0.00000000	          0.29841236	          0.00000000	         -0.00000000	          0.00000000	          0.00000000	          0.08100721	          0.00000000	
          1.49000000	          0.00000000	         -0.00000000	          0.00000000	         -0.00000000	          0.00000000	         -0.00000000	        -71.24786116	        499.52482184	         36.89416187	         -0.25967493	          0.00000000	          0.29937227	          0.00000000	          0.00000000	          0.00000000	          0.00000000	         -0.02142207	          0.00000000	
          1.49500000	          0.00000000	         -0.00000000	          0.00000000	         -0.00000000	          0.00000000	         -0.00000000	        -89.67566610	        503.49095889	         28.54061772	         -0.25703268	          0.00000000	          0.30034242	          0.00000000	          0.00000000	          0.00000000	          0.00000000	         -0.00167727	          0.00000000	
          1.50000000	         -0.00000000	         -0.00000000	          0.00000000	          0.00000000	          0.00000000	          0.00000000	       -101.12656835	        499.96735112	         18.40362272	         -0.25293383	          0.00000000	          0.30166911	          0.00000000	          0.00000000	          0.00000000	          0.00000000	          0.33939481	          0.00000000	
